<svg xmlns="http://www.w3.org/2000/svg" viewBox="-40 -40 1266.21 302.82"><defs><style>.cls-1{fill:#ffffff;}</style></defs><g id="Layer_2" data-name="Layer 2"><g id="Layer_1-2" data-name="Layer 1"><path class="cls-1" d="M0,219.68V69H34.52V219.68Zm103.25,0V69h34.52V219.68ZM0,69H137.77v34.53H0Z"/><path class="cls-1" d="M245.35,222.82a77.16,77.16,0,0,1-39.85-10.51,78.58,78.58,0,0,1-28.4-28.4,77.1,77.1,0,0,1-10.52-39.86q0-22,10.52-39.54a79.31,79.31,0,0,1,28.4-28.09,77.16,77.16,0,0,1,39.85-10.51q22.29,0,40.18,10.35a77.9,77.9,0,0,1,28.4,28.09,76.46,76.46,0,0,1,10.51,39.7,77.29,77.29,0,0,1-10.51,39.86,78.74,78.74,0,0,1-28.4,28.4Q267.64,222.83,245.35,222.82Zm0-33.26a44.11,44.11,0,0,0,22.76-5.81,40.25,40.25,0,0,0,15.38-16.16A49.61,49.61,0,0,0,289,144.05a46.59,46.59,0,0,0-5.65-23.22A42.26,42.26,0,0,0,268,105a46.53,46.53,0,0,0-45,0,40.61,40.61,0,0,0-15.38,15.85q-5.5,10-5.49,23.22a49.38,49.38,0,0,0,5.49,23.54,40.12,40.12,0,0,0,15.38,16.16A43.44,43.44,0,0,0,245.35,189.56Z"/><path class="cls-1" d="M416.08,222.82a67.9,67.9,0,0,1-36.88-10.35,74.14,74.14,0,0,1-26.05-28.09q-9.57-17.73-9.57-39.7,0-22.29,9.57-40A75.39,75.39,0,0,1,379.2,76.42a67.1,67.1,0,0,1,36.88-10.51q17.25,0,30.6,7.37a56.33,56.33,0,0,1,21.18,20.24,55,55,0,0,1,7.85,29.19V166A55.8,55.8,0,0,1,468,195.2a54.75,54.75,0,0,1-21.19,20.25Q433.33,222.82,416.08,222.82Zm5.65-32.64q12.86,0,22.43-5.8a39.78,39.78,0,0,0,14.91-16.17,51.29,51.29,0,0,0,5.34-23.85,51.35,51.35,0,0,0-5.34-23.85,39.82,39.82,0,0,0-14.91-16.16q-9.57-5.8-22.43-5.81a41.83,41.83,0,0,0-22.13,5.81,40.79,40.79,0,0,0-15.06,16.16,50.08,50.08,0,0,0-5.5,23.85,50,50,0,0,0,5.5,23.85,40.75,40.75,0,0,0,15.06,16.17A41.83,41.83,0,0,0,421.73,190.18Zm75,29.5H462.21V179.2l6-36.72-6-36.4V0h34.52Z"/><path class="cls-1" d="M598.1,222.82a67.87,67.87,0,0,1-36.88-10.35,74.14,74.14,0,0,1-26.05-28.09q-9.57-17.73-9.57-39.7,0-22.29,9.57-40a75.39,75.39,0,0,1,26.05-28.24A67.08,67.08,0,0,1,598.1,65.91q17.25,0,30.59,7.37a56.29,56.29,0,0,1,21.19,20.24,55,55,0,0,1,7.84,29.19V166A55.8,55.8,0,0,1,650,195.2a54.82,54.82,0,0,1-21.19,20.25Q615.35,222.82,598.1,222.82Zm5.64-32.64q19.14,0,30.92-12.86t11.77-33a51.35,51.35,0,0,0-5.34-23.85,39.82,39.82,0,0,0-14.91-16.16q-9.57-5.8-22.44-5.81a41.8,41.8,0,0,0-22.12,5.81,40.79,40.79,0,0,0-15.06,16.16,50.08,50.08,0,0,0-5.5,23.85,50,50,0,0,0,5.5,23.85,40.75,40.75,0,0,0,15.06,16.17A41.79,41.79,0,0,0,603.74,190.18Zm40.49,29.5V179.2l6-36.72-6-36.4V69h34.52V219.68Z"/><path class="cls-1" d="M714.52,219.68V69h34.53V219.68Zm100.12,0V69h34.52V219.68Zm100.11,0V69h34.52V219.68ZM714.53,69H949.27v34.52H714.53Z"/><path class="cls-1" d="M1002.31,41.43a19.52,19.52,0,0,1-14.6-6,20.3,20.3,0,0,1-5.8-14.75A20.34,20.34,0,0,1,987.71,6a19.55,19.55,0,0,1,14.6-6q9.09,0,14.75,6a20.67,20.67,0,0,1,5.65,14.75,20.64,20.64,0,0,1-5.65,14.75Q1011.41,41.43,1002.31,41.43ZM985.05,219.68V69h34.52V219.68Z"/><path class="cls-1" d="M1127.53,222.82a79.59,79.59,0,0,1-40.33-10.35,75.8,75.8,0,0,1-28.4-28.25,78,78,0,0,1-10.36-39.86q0-22.28,10.36-40a76.19,76.19,0,0,1,28.4-28.09,83.48,83.48,0,0,1,73.12-3.61A71.69,71.69,0,0,1,1186.21,92l-22.59,22.91a41.93,41.93,0,0,0-15.85-11.77,51.47,51.47,0,0,0-20.24-3.92,44.09,44.09,0,0,0-22.76,5.81,40.68,40.68,0,0,0-15.38,15.85q-5.49,10-5.49,23.53a48.52,48.52,0,0,0,5.49,23.38,40.37,40.37,0,0,0,15.38,16,44.09,44.09,0,0,0,22.76,5.81,51.3,51.3,0,0,0,20.24-3.93,41.62,41.62,0,0,0,15.85-11.77l22.59,22.91a71.46,71.46,0,0,1-25.89,19.3A80,80,0,0,1,1127.53,222.82Z"/></g></g></svg>